<svg width="20" height="21" viewBox="0 0 20 21" fill="none" xmlns="http://www.w3.org/2000/svg">
<path d="M17.5 12.25V16.625C17.5 17.0891 17.3244 17.5342 17.0118 17.8624C16.6993 18.1906 16.2754 18.375 15.8333 18.375H4.16667C3.72464 18.375 3.30072 18.1906 2.98816 17.8624C2.67559 17.5342 2.5 17.0891 2.5 16.625V4.375C2.5 3.91087 2.67559 3.46575 2.98816 3.13756C3.30072 2.80937 3.72464 2.625 4.16667 2.625H8.33333V4.375H4.16667V16.625H15.8333V12.25H17.5Z" stroke='none'/>
<path d="M17.5013 6.125H14.168V2.625H12.5013V6.125H9.16797V7.875H12.5013V11.375H14.168V7.875H17.5013V6.125Z" stroke='none'/>
</svg>
