<svg xmlns="http://www.w3.org/2000/svg" width="14" height="15" viewBox="0 0 14 15" fill="none">
<path d="M9.35371 0.0461389C9.22293 -0.0115523 9.07444 -0.0152874 8.94089 0.0357551C8.80735 0.0867977 8.69969 0.188437 8.6416 0.318313C8.58351 0.44819 8.57975 0.595664 8.63114 0.728295C8.68254 0.860925 8.78488 0.967847 8.91565 1.02554C8.92428 1.02982 9.03757 1.08233 9.22099 1.18949C10.3229 1.84057 11.2458 2.75197 11.9076 3.84265C13.0081 5.67393 12.9283 7.61666 12.9132 7.98313L12.911 8.03671C12.9109 8.1788 12.9676 8.31514 13.0687 8.41571C13.1697 8.51629 13.3069 8.57288 13.45 8.57302C13.593 8.57316 13.7303 8.51685 13.8316 8.41647C13.9329 8.31609 13.9898 8.17987 13.99 8.03778V8.04206L13.9911 8.0142C14.0148 7.50131 13.9913 6.98733 13.9209 6.47867C13.8022 5.59142 13.5163 4.42772 12.8355 3.29401C11.4868 1.05233 9.47887 0.100788 9.35371 0.0472105V0.0461389ZM9.45081 2.78396C9.39264 2.74115 9.32638 2.71041 9.25598 2.69357C9.18559 2.67673 9.1125 2.67414 9.04108 2.68594C8.96965 2.69775 8.90135 2.72372 8.84025 2.76229C8.77914 2.80087 8.72648 2.85127 8.6854 2.91048C8.64432 2.9697 8.61567 3.03652 8.60114 3.10697C8.58662 3.17742 8.58652 3.25005 8.60086 3.32054C8.6152 3.39102 8.64367 3.45792 8.68459 3.51725C8.72552 3.57657 8.77804 3.62711 8.83904 3.66584C9.3426 3.99926 9.75748 4.44869 10.0483 4.97579C10.3391 5.5029 10.4973 6.09204 10.5093 6.69298V6.69726C10.5093 6.83936 10.5661 6.97564 10.6673 7.07612C10.7684 7.17659 10.9057 7.23304 11.0487 7.23304C11.1918 7.23304 11.329 7.17659 11.4302 7.07612C11.5314 6.97564 11.5882 6.83936 11.5882 6.69726V6.62976C11.5824 6.41133 11.5608 6.1936 11.5235 5.97825C11.4331 5.456 11.2586 4.95162 11.0067 4.48451C10.7483 4.01217 10.4125 3.58591 10.0129 3.22329C9.70437 2.94254 9.44758 2.78181 9.45081 2.78396ZM0.544036 10.4005C-0.00641564 9.41754 -0.145735 8.25904 0.156131 7.17493C0.457996 6.09083 1.17685 5.16802 2.15764 4.60555C3.13842 4.04308 4.30253 3.88603 5.39885 4.16829C6.49518 4.45055 7.43585 5.14949 8.01796 6.11434L8.9027 7.63595L10.9592 9.12219C11.0318 9.1747 11.0901 9.2444 11.1287 9.32494C11.1673 9.40548 11.1851 9.49433 11.1803 9.58342C11.1756 9.67251 11.1486 9.75901 11.1017 9.83509C11.0548 9.91117 10.9895 9.97441 10.9117 10.0191L8.18196 11.5846L8.1852 11.5868L5.23102 13.2809V13.2766L2.50126 14.8411C2.42346 14.8856 2.33568 14.9102 2.2459 14.9126C2.15611 14.9149 2.06716 14.8949 1.9871 14.8545C1.90705 14.8141 1.83843 14.7544 1.78747 14.6809C1.73651 14.6075 1.70482 14.5226 1.69528 14.4339L1.42878 11.9232L0.544036 10.4016V10.4005ZM1.47841 9.86477L2.42034 11.486C2.45794 11.5508 2.48146 11.6227 2.48939 11.6971L2.68145 13.5016L9.65366 9.50366L8.17549 8.43639C8.11482 8.39229 8.0641 8.33608 8.02659 8.27137L7.08359 6.65119C6.64607 5.92947 5.94077 5.40716 5.11943 5.19663C4.2981 4.98611 3.42638 5.10419 2.69182 5.52547C1.95726 5.94675 1.41856 6.63757 1.19164 7.44929C0.964709 8.26101 1.06769 9.12876 1.47841 9.86584V9.86477ZM5.63023 14.2903C5.91173 14.6427 6.31139 14.8828 6.75631 14.9669C7.20123 15.051 7.66177 14.9735 8.05394 14.7485C8.44611 14.5235 8.74378 14.166 8.89266 13.7412C9.04153 13.3164 9.03169 12.8526 8.86494 12.4344L5.63023 14.2892V14.2903Z" fill="#3CACDD"/>
</svg>