<svg width="22" height="22" viewBox="0 0 22 22" fill="none" xmlns="http://www.w3.org/2000/svg">
<path d="M15.522 15.3007C15.4341 15.3007 15.349 15.2536 15.3043 15.171L14.8895 14.4049C14.6791 14.0162 14.3123 13.7335 13.8829 13.6291L13.0808 13.4338C12.8413 13.3755 12.6135 13.2628 12.4216 13.1083C12.0223 12.7862 11.793 12.3077 11.793 11.7947V11.2277C11.793 11.0912 11.9037 10.9805 12.0402 10.9805C12.1768 10.9805 12.2875 11.0912 12.2875 11.2277V11.7947C12.2875 12.1571 12.4493 12.4957 12.732 12.7235C12.8676 12.8328 13.0288 12.9125 13.1984 12.9538L14.0005 13.1491C14.5654 13.2866 15.0483 13.6587 15.3247 14.1702L15.7396 14.9364C15.8047 15.0563 15.76 15.2065 15.64 15.2716C15.6021 15.291 15.5618 15.3007 15.522 15.3007Z"  stroke-width="0.5"/>
<path d="M6.47363 15.3007C6.4338 15.3007 6.39347 15.291 6.35607 15.2711C6.23607 15.206 6.19138 15.0563 6.25648 14.9359L6.67135 14.1698C6.94777 13.6582 7.43066 13.2861 7.99565 13.1486L8.79771 12.9533C8.96725 12.912 9.12805 12.8323 9.26408 12.723C9.54633 12.4957 9.70859 12.1571 9.70859 11.7942V11.2273C9.70859 11.0907 9.81935 10.98 9.95586 10.98C10.0924 10.98 10.2031 11.0907 10.2031 11.2273V11.7942C10.2031 12.3072 9.97432 12.7862 9.57451 13.1078C9.38261 13.2623 9.15429 13.375 8.91479 13.4333L8.11273 13.6286C7.68328 13.733 7.3165 14.0158 7.10615 14.4044L6.69127 15.1705C6.64658 15.2536 6.56108 15.3007 6.47363 15.3007Z" stroke-width="0.5"/>
<path d="M10.9977 11.8451C9.79922 11.8451 8.82422 10.6908 8.82422 9.27227C8.82422 7.85373 9.79922 6.69946 10.9977 6.69946C12.1962 6.69946 13.1717 7.85373 13.1717 9.27227C13.1712 10.6908 12.1962 11.8451 10.9977 11.8451ZM10.9977 7.19401C10.0718 7.19401 9.31828 8.12626 9.31828 9.27227C9.31828 10.4183 10.0718 11.3505 10.9977 11.3505C11.9236 11.3505 12.6771 10.4183 12.6771 9.27227C12.6771 8.12626 11.9236 7.19401 10.9977 7.19401Z" stroke-width="0.5"/>
<path d="M11 17.4964C7.41823 17.4964 4.50391 14.5821 4.50391 11.0003C4.50391 7.41848 7.41775 4.50415 11 4.50415C14.5819 4.50415 17.4962 7.41848 17.4962 11.0003C17.4962 14.5821 14.5819 17.4964 11 17.4964ZM11 4.99821C7.69077 4.99821 4.99845 7.69053 4.99845 11.0003C4.99845 14.3101 7.69077 17.0019 11 17.0019C14.3093 17.0019 17.0021 14.3096 17.0021 11.0003C17.0021 7.69101 14.3093 4.99821 11 4.99821Z"  stroke-width="0.5"/>
<path d="M16.2957 4.4016C16.2427 4.4016 16.1893 4.38459 16.1446 4.34962C14.9587 3.43096 13.548 2.84606 12.0639 2.65854C11.9283 2.64154 11.8326 2.51766 11.8496 2.3826C11.8666 2.24707 11.9886 2.15185 12.1255 2.16837C13.6971 2.36706 15.1914 2.98597 16.4472 3.95903C16.5551 4.04259 16.575 4.19805 16.4914 4.30589C16.4429 4.36905 16.3695 4.4016 16.2957 4.4016Z"  stroke-width="0.5"/>
<path d="M5.70418 4.40218C5.63034 4.40218 5.55747 4.36915 5.50889 4.30648C5.42533 4.19863 5.44477 4.04317 5.55262 3.95961C6.80841 2.98655 8.30274 2.36716 9.87431 2.16895C10.0103 2.15195 10.1332 2.24765 10.1502 2.38319C10.1672 2.51873 10.0715 2.64212 9.93601 2.65912C8.45188 2.84664 7.04063 3.43155 5.85478 4.3502C5.81058 4.38518 5.75714 4.40218 5.70418 4.40218Z"  stroke-width="0.5"/>
<path d="M2.41526 10.1514C2.40505 10.1514 2.39437 10.1509 2.38416 10.1495C2.24862 10.1325 2.15292 10.0086 2.16993 9.87354C2.36862 8.30148 2.98753 6.80715 3.96108 5.55136C4.04463 5.44351 4.20009 5.42359 4.30794 5.50763C4.41579 5.59119 4.43571 5.74665 4.35166 5.8545C3.43301 7.04034 2.8481 8.45159 2.66059 9.93572C2.64407 10.0601 2.53768 10.1514 2.41526 10.1514Z"  stroke-width="0.5"/>
<path d="M4.15685 16.5451C4.08301 16.5451 4.01014 16.5121 3.96156 16.4494C2.98802 15.1936 2.36813 13.6983 2.16993 12.1263C2.15292 11.9907 2.24862 11.8673 2.38416 11.8503C2.52067 11.8333 2.64358 11.929 2.6601 12.0646C2.84762 13.5492 3.43252 14.9604 4.35215 16.1468C4.43571 16.2546 4.41627 16.4101 4.30843 16.4936C4.26325 16.5286 4.20981 16.5451 4.15685 16.5451Z"  stroke-width="0.5"/>
<path d="M9.90522 19.8337C9.89502 19.8337 9.88433 19.8333 9.87413 19.8318C8.30256 19.6331 6.80823 19.0142 5.55292 18.0411C5.44507 17.9576 5.42515 17.8021 5.50871 17.6943C5.59227 17.5864 5.74772 17.5665 5.85557 17.6501C7.04141 18.5687 8.45218 19.1536 9.93631 19.3411C10.0718 19.3581 10.1676 19.482 10.1505 19.6171C10.1345 19.7424 10.0281 19.8337 9.90522 19.8337Z" stroke-width="0.5"/>
<path d="M12.0945 19.8335C11.9715 19.8335 11.8652 19.7422 11.8496 19.6173C11.8326 19.4818 11.9283 19.3584 12.0639 19.3414C13.548 19.1539 14.9587 18.5694 16.1446 17.6503C16.2524 17.5668 16.4079 17.5867 16.4914 17.6945C16.575 17.8024 16.5551 17.9578 16.4472 18.0414C15.1914 19.0144 13.6971 19.6334 12.1255 19.832C12.1153 19.833 12.1047 19.8335 12.0945 19.8335Z"  stroke-width="0.5"/>
<path d="M17.8445 16.5437C17.7916 16.5437 17.7381 16.5267 17.6934 16.4917C17.5856 16.4081 17.5657 16.2527 17.6497 16.1448C18.5684 14.9595 19.1533 13.5482 19.3408 12.0641C19.3578 11.9286 19.4807 11.8329 19.6167 11.8499C19.7523 11.8669 19.848 11.9907 19.831 12.1258C19.6323 13.6974 19.0134 15.1917 18.0403 16.4475C17.9917 16.5111 17.9184 16.5437 17.8445 16.5437Z"  stroke-width="0.5"/>
<path d="M19.5838 10.1428C19.4614 10.1428 19.355 10.0514 19.339 9.92707C19.1505 8.44635 18.566 7.03849 17.6493 5.8546C17.5658 5.74675 17.5857 5.59129 17.6935 5.50773C17.8014 5.42418 17.9568 5.44409 18.0404 5.55194C19.0115 6.80531 19.6299 8.29624 19.8296 9.8644C19.8471 9.99994 19.7509 10.1238 19.6159 10.1408C19.6047 10.1423 19.5945 10.1428 19.5838 10.1428Z"  stroke-width="0.5"/>
<path d="M11.0014 3.69037C10.2596 3.69037 9.65625 3.08701 9.65625 2.34519C9.65625 1.60337 10.2596 1 11.0014 1C11.7433 1 12.3466 1.60337 12.3466 2.34519C12.3461 3.08701 11.7428 3.69037 11.0014 3.69037ZM11.0014 1.49455C10.5322 1.49455 10.1508 1.87639 10.1508 2.34519C10.1508 2.81398 10.5326 3.19582 11.0014 3.19582C11.4707 3.19582 11.8521 2.81398 11.8521 2.34519C11.8521 1.87639 11.4702 1.49455 11.0014 1.49455Z"  stroke-width="0.5"/>
<path d="M11.0014 20.9999C10.2596 20.9999 9.65625 20.3966 9.65625 19.6548C9.65625 18.9129 10.2596 18.3096 11.0014 18.3096C11.7433 18.3096 12.3466 18.9129 12.3466 19.6548C12.3461 20.3966 11.7428 20.9999 11.0014 20.9999ZM11.0014 18.8041C10.5322 18.8041 10.1508 19.186 10.1508 19.6548C10.1508 20.1236 10.5326 20.5054 11.0014 20.5054C11.4707 20.5054 11.8521 20.1236 11.8521 19.6548C11.8521 19.186 11.4702 18.8041 11.0014 18.8041Z" stroke-width="0.5"/>
<path d="M19.6538 12.3454C18.912 12.3454 18.3086 11.742 18.3086 11.0002C18.3086 10.2584 18.912 9.65503 19.6538 9.65503C20.3956 9.65503 20.999 10.2584 20.999 11.0002C20.999 11.742 20.3951 12.3454 19.6538 12.3454ZM19.6538 10.1491C19.1845 10.1491 18.8031 10.5309 18.8031 10.9997C18.8031 11.4685 19.185 11.8504 19.6538 11.8504C20.1231 11.8504 20.5044 11.4685 20.5044 10.9997C20.5044 10.5309 20.1226 10.1491 19.6538 10.1491Z"  stroke-width="0.5"/>
<path d="M2.34519 12.3454C1.60337 12.3454 1 11.7415 1 11.0002C1 10.2589 1.60337 9.65503 2.34519 9.65503C3.08701 9.65503 3.69037 10.2584 3.69037 11.0002C3.69037 11.742 3.08652 12.3454 2.34519 12.3454ZM2.34519 10.1491C1.8759 10.1491 1.49455 10.5309 1.49455 10.9997C1.49455 11.4685 1.87639 11.8504 2.34519 11.8504C2.81447 11.8504 3.19582 11.4685 3.19582 10.9997C3.19582 10.5309 2.81398 10.1491 2.34519 10.1491Z" stroke-width="0.5"/>
<path d="M17.1186 6.22444C16.7742 6.22444 16.4298 6.09327 16.1674 5.83094C15.9133 5.57686 15.7734 5.23923 15.7734 4.87974C15.7734 4.52024 15.9133 4.18261 16.1674 3.92854C16.6921 3.40436 17.5452 3.40436 18.0698 3.92854C18.594 4.45272 18.594 5.30627 18.0698 5.83094C17.808 6.09375 17.4631 6.22444 17.1186 6.22444ZM17.1186 4.03007C16.901 4.03007 16.6829 4.11314 16.5172 4.2788C16.3564 4.4396 16.268 4.65335 16.268 4.88022C16.268 5.10709 16.3564 5.32133 16.5172 5.48164C16.849 5.81345 17.3887 5.81345 17.7205 5.48164C18.0523 5.14984 18.0523 4.61012 17.7205 4.27831C17.5544 4.11265 17.3367 4.03007 17.1186 4.03007ZM17.8954 5.65653H17.8993H17.8954Z"  stroke-width="0.5"/>
<path d="M4.88034 18.4647C4.53591 18.4647 4.19147 18.3335 3.92914 18.0712C3.67507 17.8171 3.53516 17.4795 3.53516 17.12C3.53516 16.7605 3.67507 16.4228 3.92914 16.1688C4.45381 15.6446 5.30688 15.6446 5.83154 16.1688C6.08562 16.4228 6.22553 16.7605 6.22553 17.12C6.22553 17.4795 6.08562 17.8171 5.83154 18.0712C5.56921 18.3335 5.22478 18.4647 4.88034 18.4647ZM4.88034 16.2698C4.6627 16.2698 4.44458 16.3529 4.27892 16.5185C4.11812 16.6793 4.0297 16.8931 4.0297 17.12C4.0297 17.3473 4.11812 17.5611 4.27892 17.7214C4.61072 18.0532 5.15045 18.0532 5.48225 17.7214C5.64305 17.5606 5.73147 17.3468 5.73147 17.12C5.73147 16.8926 5.64305 16.6789 5.48225 16.5185C5.31611 16.3529 5.09798 16.2698 4.88034 16.2698Z" stroke-width="0.5"/>
<path d="M17.1186 18.4647C16.7742 18.4647 16.4298 18.3335 16.1674 18.0712C15.9133 17.8171 15.7734 17.4795 15.7734 17.12C15.7734 16.7605 15.9133 16.4228 16.1674 16.1688C16.6921 15.6446 17.5452 15.6446 18.0698 16.1688C18.594 16.6934 18.594 17.5465 18.0698 18.0712C17.808 18.3335 17.4631 18.4647 17.1186 18.4647ZM17.1186 16.2698C16.901 16.2698 16.6829 16.3529 16.5172 16.5185C16.3564 16.6793 16.268 16.8931 16.268 17.12C16.268 17.3473 16.3564 17.5611 16.5172 17.7214C16.849 18.0532 17.3887 18.0532 17.7205 17.7214C18.0523 17.3896 18.0523 16.8499 17.7205 16.5181C17.5544 16.3529 17.3367 16.2698 17.1186 16.2698Z" stroke="white" stroke-width="0.5"/>
<path d="M4.88034 6.22444C4.53591 6.22444 4.19147 6.09327 3.92914 5.83094C3.67507 5.57686 3.53516 5.23923 3.53516 4.87974C3.53516 4.52024 3.67507 4.18261 3.92914 3.92854C4.45332 3.40436 5.30688 3.40436 5.83106 3.92854C6.08513 4.18261 6.22504 4.52024 6.22504 4.87974C6.22504 5.23923 6.08513 5.57686 5.83106 5.83094C5.56921 6.09375 5.22478 6.22444 4.88034 6.22444ZM4.27892 5.48164C4.61072 5.81345 5.15045 5.81345 5.48225 5.48164C5.64305 5.32084 5.73147 5.10709 5.73147 4.88022C5.73147 4.65335 5.64305 4.43911 5.48225 4.2788C5.15045 3.947 4.61072 3.947 4.27892 4.2788C4.11812 4.4396 4.0297 4.65335 4.0297 4.88022C4.02922 5.10758 4.11812 5.32084 4.27892 5.48164Z"  stroke-width="0.5"/>
<ellipse cx="17.0856" cy="4.91294" rx="1.30435" ry="1.30435" transform="rotate(-90 17.0856 4.91294)" stroke="none"/>
<ellipse cx="19.695" cy="11.0001" rx="1.30435" ry="1.30435" transform="rotate(-90 19.695 11.0001)" stroke="none" />
<ellipse cx="17.0856" cy="17.087" rx="1.30435" ry="1.30435" transform="rotate(-90 17.0856 17.087)" stroke="none" />
<ellipse cx="10.9997" cy="19.6957" rx="1.30435" ry="1.30435" transform="rotate(-90 10.9997 19.6957)" stroke="none"/>
<ellipse cx="4.91372" cy="17.087" rx="1.30435" ry="1.30435" transform="rotate(-90 4.91372 17.087)" stroke="none" />
</svg>
