<svg width="19" height="19" viewBox="0 0 19 19" fill="none" xmlns="http://www.w3.org/2000/svg">
<path fill-rule="evenodd" clip-rule="evenodd" d="M9.15547 3.5625H17.2186L17.8242 4.15625V16.0312L17.2305 16.625H1.79297L1.19922 16.0312V2.96875L1.79297 2.375H7.73047L8.14609 2.55313L9.15547 3.5625ZM16.613 15.4375V13.6444L16.6248 8.89437V7.11312H9.14359L8.12234 8.13438L7.70672 8.3125H2.37484V15.4375H16.613ZM8.89422 5.9375H16.613L16.6248 4.76188H8.90609L8.47859 4.58375L7.46922 3.57438H2.37484V7.13688H7.45734L8.47859 6.11563L8.89422 5.9375ZM11.6136 10.7706L9.99859 9.14375L10.8773 8.32438L13.5136 10.9606V11.8037L10.7942 14.4281L9.96297 13.5731L11.6255 11.97H9.99859C9.3912 11.9974 8.81742 12.2566 8.39547 12.6944C8.19104 12.8978 8.0299 13.1405 7.92174 13.4078C7.81357 13.6752 7.76063 13.9617 7.76609 14.25H6.57859C6.5712 13.8098 6.65255 13.3727 6.81781 12.9646C6.98307 12.5566 7.22885 12.186 7.54047 11.875C8.16318 11.2186 9.01229 10.8238 9.91547 10.7706H11.6136Z" stroke="none" />
</svg>
