<svg width="1920" height="698" viewBox="0 0 1920 698" fill="none" xmlns="http://www.w3.org/2000/svg">
<path d="M1479.53 652.011L1479.44 495.851H1539.84L1563.88 620.355C1590.79 628.111 1625.49 635.377 1661.62 635.377C1742.76 635.377 1794.17 610.371 1794.17 540.336C1794.17 493.369 1776.79 471.57 1738.78 445.84C1723.48 435.493 1591.73 351.343 1568.7 334.618C1504.56 288.013 1478.81 231.696 1478.81 162.187C1478.81 72.637 1565.3 -2 1694.66 -2H1150V698H1666.33C1543.64 698 1479.44 652.156 1479.44 652.156L1479.53 652.011Z" fill="#3CACDD"/>
<path d="M1820.19 340.525C1814.03 335.995 1682.41 251.737 1682.41 251.737C1641.07 227.238 1599.74 193.68 1599.74 142.798C1599.74 91.9168 1634.52 59.4998 1694.6 59.4998C1741.55 59.4998 1783.66 68.2519 1815.34 77.5656L1838.86 199.279H1899.23L1899.12 42.9742C1899.12 42.9742 1809.77 -2 1694.66 -2C1565.3 -2 1478.81 72.637 1478.81 162.187C1478.81 231.696 1504.56 288.013 1568.7 334.618C1591.73 351.361 1723.49 435.493 1738.78 445.84C1776.79 471.552 1794.17 493.369 1794.17 540.336C1794.17 610.371 1742.76 635.377 1661.62 635.377C1625.49 635.377 1590.77 628.111 1563.88 620.355L1539.84 495.851H1479.44L1479.55 652.011L1479.46 652.156C1479.46 652.156 1543.66 698 1666.35 698C1801.96 698 1920.47 638.294 1920.47 503.589C1920.47 419.022 1866.82 374.845 1820.19 340.544V340.525Z" fill="#1B2531"/>
<rect width="1209" height="698" fill="#3CACDD"/>
</svg>
