<svg xmlns="http://www.w3.org/2000/svg" width="12" height="11" viewBox="0 0 12 11" fill="none">
<path d="M6.81641 5.46271L10.8664 1.41271C10.9574 1.30643 11.005 1.16972 10.9996 1.0299C10.9942 0.890083 10.9362 0.75745 10.8373 0.658509C10.7383 0.559567 10.6057 0.501604 10.4659 0.496204C10.3261 0.490803 10.1894 0.538362 10.0831 0.629377L6.03308 4.67938L1.98308 0.623821C1.8768 0.532807 1.74009 0.485248 1.60027 0.490649C1.46045 0.496049 1.32782 0.554012 1.22888 0.652953C1.12994 0.751894 1.07197 0.884527 1.06657 1.02435C1.06117 1.16417 1.10873 1.30088 1.19975 1.40715L5.24975 5.46271L1.19419 9.51271C1.13603 9.56252 1.0888 9.6238 1.05545 9.69273C1.02211 9.76165 1.00337 9.83673 1.00041 9.91324C0.997459 9.98975 1.01035 10.066 1.03828 10.1373C1.06621 10.2086 1.10858 10.2734 1.16272 10.3275C1.21686 10.3817 1.28161 10.424 1.3529 10.452C1.42419 10.4799 1.50049 10.4928 1.577 10.4898C1.65351 10.4869 1.72858 10.4681 1.79751 10.4348C1.86643 10.4014 1.92772 10.3542 1.97752 10.296L6.03308 6.24604L10.0831 10.296C10.1894 10.3871 10.3261 10.4346 10.4659 10.4292C10.6057 10.4238 10.7383 10.3659 10.8373 10.2669C10.9362 10.168 10.9942 10.0353 10.9996 9.89552C11.005 9.7557 10.9574 9.61899 10.8664 9.51271L6.81641 5.46271Z" fill="black" stroke="black" stroke-width="0.5"/>
</svg>