<svg xmlns="http://www.w3.org/2000/svg" width="15" height="15" viewBox="0 0 16 16" fill="none">
  <path fill-rule="evenodd" clip-rule="evenodd" d="M1 8.38578C1 4.3081 4.30677 1 8.38281 1C12.4589 1 15.7656 4.3081 15.7656 8.38578C15.7656 12.4635 12.4589 15.7716 8.38281 15.7716C4.30677 15.7716 1 12.4635 1 8.38578ZM8.38281 2.13627C4.93406 2.13627 2.13582 4.93565 2.13582 8.38578C2.13582 11.8359 4.93406 14.6353 8.38281 14.6353C11.8316 14.6353 14.6298 11.8359 14.6298 8.38578C14.6298 4.93565 11.8316 2.13627 8.38281 2.13627Z" fill="black" stroke="black" stroke-width="0.4" stroke-miterlimit="10"/>
  <path fill-rule="evenodd" clip-rule="evenodd" d="M7.91016 4.11035C8.2014 4.11035 8.4375 4.36802 8.4375 4.68587V9.28999H11.0742C11.3655 9.28999 11.6016 9.54765 11.6016 9.8655C11.6016 10.1834 11.3655 10.441 11.0742 10.441H7.91016C7.61891 10.441 7.38281 10.1834 7.38281 9.8655V4.68587C7.38281 4.36802 7.61891 4.11035 7.91016 4.11035Z" fill="black" stroke="black" stroke-width="0.4" stroke-linecap="round" stroke-linejoin="round"/>
</svg>