<svg xmlns="http://www.w3.org/2000/svg" width="24" height="24" viewBox="0 0 24 24" fill="none">
  <path d="M18.53 9L13 3.47C12.8595 3.32931 12.6688 3.25018 12.47 3.25H8C7.27065 3.25 6.57118 3.53973 6.05546 4.05546C5.53973 4.57118 5.25 5.27065 5.25 6V18C5.25 18.7293 5.53973 19.4288 6.05546 19.9445C6.57118 20.4603 7.27065 20.75 8 20.75H16C16.7293 20.75 17.4288 20.4603 17.9445 19.9445C18.4603 19.4288 18.75 18.7293 18.75 18V9.5C18.7421 9.3116 18.6636 9.13309 18.53 9ZM13.25 5.81L16.19 8.75H13.25V5.81ZM16 19.25H8C7.66848 19.25 7.35054 19.1183 7.11612 18.8839C6.8817 18.6495 6.75 18.3315 6.75 18V6C6.75 5.66848 6.8817 5.35054 7.11612 5.11612C7.35054 4.8817 7.66848 4.75 8 4.75H11.75V9.5C11.7526 9.69811 11.8324 9.88737 11.9725 10.0275C12.1126 10.1676 12.3019 10.2474 12.5 10.25H17.25V18C17.25 18.3315 17.1183 18.6495 16.8839 18.8839C16.6495 19.1183 16.3315 19.25 16 19.25Z" fill="black"/>
  <path d="M14.4699 11.9099C14.3119 11.7892 14.1134 11.7343 13.9158 11.7566C13.7182 11.779 13.5369 11.8769 13.4099 12.0299L11.9999 13.7999L10.5899 11.9999C10.5243 11.9225 10.444 11.8587 10.3537 11.8122C10.2634 11.7658 10.1648 11.7375 10.0636 11.7292C9.96236 11.7208 9.86048 11.7325 9.76378 11.7635C9.66707 11.7945 9.57741 11.8443 9.49993 11.9099C9.42245 11.9756 9.35866 12.0559 9.31221 12.1462C9.26575 12.2365 9.23754 12.3351 9.22919 12.4363C9.22083 12.5375 9.23249 12.6394 9.2635 12.7361C9.29451 12.8328 9.34427 12.9225 9.40993 12.9999L10.9999 14.9999L9.40993 16.9999C9.28528 17.1564 9.22789 17.356 9.2504 17.5548C9.2729 17.7536 9.37345 17.9353 9.52993 18.0599C9.68641 18.1846 9.886 18.242 10.0848 18.2195C10.2836 18.197 10.4653 18.0964 10.5899 17.9399L11.9999 16.1999L13.4099 17.9999C13.4817 18.087 13.5718 18.1572 13.6738 18.2056C13.7757 18.254 13.8871 18.2793 13.9999 18.2799C14.1533 18.2926 14.3069 18.2579 14.4398 18.1803C14.5727 18.1028 14.6785 17.9862 14.743 17.8464C14.8074 17.7067 14.8273 17.5505 14.7999 17.3991C14.7725 17.2476 14.6992 17.1083 14.5899 16.9999L12.9999 14.9999L14.6299 12.9999C14.6922 12.9183 14.7375 12.8251 14.7631 12.7257C14.7888 12.6263 14.7944 12.5228 14.7794 12.4212C14.7645 12.3197 14.7295 12.2221 14.6763 12.1343C14.6232 12.0465 14.553 11.9702 14.4699 11.9099Z" fill="black"/>
</svg>