<svg width="16" height="16" viewBox="0 0 16 16" fill="none" xmlns="http://www.w3.org/2000/svg">
<g id="fluent-mdl2:company-directory">
<path id="Vector" d="M15 0V16H2V14.0156H1V13.0156H2V11.0078H1V10.0078H2V6.00781H1V5.00781H2V3.00781H1V2.00781H2V0H15ZM14 1H3V15H14V1ZM13 4H8V3H13V4ZM13 6H8V5H13V6ZM5.5 12.9688C5.29688 12.9688 5.10677 12.9323 4.92969 12.8594C4.7526 12.7865 4.59635 12.6823 4.46094 12.5469C4.32552 12.4115 4.22135 12.2552 4.14844 12.0781C4.07552 11.901 4.03646 11.7083 4.03125 11.5C4.03125 11.2969 4.06771 11.1068 4.14062 10.9297C4.21354 10.7526 4.31771 10.599 4.45312 10.4688C4.58854 10.3385 4.74479 10.2318 4.92188 10.1484C5.09896 10.0651 5.29167 10.026 5.5 10.0312C5.70312 10.0312 5.89323 10.0703 6.07031 10.1484C6.2474 10.2266 6.40104 10.3307 6.53125 10.4609C6.66146 10.5911 6.76823 10.7474 6.85156 10.9297C6.9349 11.112 6.97396 11.3021 6.96875 11.5C6.96875 11.7031 6.92969 11.8932 6.85156 12.0703C6.77344 12.2474 6.66927 12.4036 6.53906 12.5391C6.40885 12.6745 6.2526 12.7786 6.07031 12.8516C5.88802 12.9245 5.69792 12.9635 5.5 12.9688ZM5.5 10.9688C5.34896 10.9688 5.22396 11.0182 5.125 11.1172C5.02604 11.2161 4.97396 11.3438 4.96875 11.5C4.96875 11.651 5.01823 11.776 5.11719 11.875C5.21615 11.974 5.34375 12.026 5.5 12.0312C5.65104 12.0312 5.77604 11.9818 5.875 11.8828C5.97396 11.7839 6.02604 11.6562 6.03125 11.5C6.03125 11.349 5.98177 11.224 5.88281 11.125C5.78385 11.026 5.65625 10.974 5.5 10.9688ZM5.5 5.96875C5.29688 5.96875 5.10677 5.93229 4.92969 5.85938C4.7526 5.78646 4.59635 5.68229 4.46094 5.54688C4.32552 5.41146 4.22135 5.25521 4.14844 5.07812C4.07552 4.90104 4.03646 4.70833 4.03125 4.5C4.03125 4.29688 4.06771 4.10677 4.14062 3.92969C4.21354 3.7526 4.31771 3.59896 4.45312 3.46875C4.58854 3.33854 4.74479 3.23177 4.92188 3.14844C5.09896 3.0651 5.29167 3.02604 5.5 3.03125C5.70312 3.03125 5.89323 3.07031 6.07031 3.14844C6.2474 3.22656 6.40104 3.33073 6.53125 3.46094C6.66146 3.59115 6.76823 3.7474 6.85156 3.92969C6.9349 4.11198 6.97396 4.30208 6.96875 4.5C6.96875 4.70312 6.92969 4.89323 6.85156 5.07031C6.77344 5.2474 6.66927 5.40365 6.53906 5.53906C6.40885 5.67448 6.2526 5.77865 6.07031 5.85156C5.88802 5.92448 5.69792 5.96354 5.5 5.96875ZM5.5 3.96875C5.34896 3.96875 5.22396 4.01823 5.125 4.11719C5.02604 4.21615 4.97396 4.34375 4.96875 4.5C4.96875 4.65104 5.01823 4.77604 5.11719 4.875C5.21615 4.97396 5.34375 5.02604 5.5 5.03125C5.65104 5.03125 5.77604 4.98177 5.875 4.88281C5.97396 4.78385 6.02604 4.65625 6.03125 4.5C6.03125 4.34896 5.98177 4.22396 5.88281 4.125C5.78385 4.02604 5.65625 3.97396 5.5 3.96875ZM13 11H8V10H13V11ZM13 13H8V12H13V13Z" stroke="none" />
</g>
</svg>
