<svg width="17" height="17" viewBox="0 0 17 17" fill="none" xmlns="http://www.w3.org/2000/svg">
<g id="iconoir:doc-search-alt">
<g id="Group">
<path id="Vector" d="M9.91536 10.6251L10.9779 11.6876M6.01953 8.85425C6.01953 9.41783 6.24341 9.95834 6.64193 10.3569C7.04044 10.7554 7.58095 10.9792 8.14453 10.9792C8.70812 10.9792 9.24862 10.7554 9.64713 10.3569C10.0456 9.95834 10.2695 9.41783 10.2695 8.85425C10.2695 8.29066 10.0456 7.75016 9.64713 7.35165C9.24862 6.95313 8.70812 6.72925 8.14453 6.72925C7.58095 6.72925 7.04044 6.95313 6.64193 7.35165C6.24341 7.75016 6.01953 8.29066 6.01953 8.85425Z" fill="none"  stroke-width="1.2" stroke-linecap="round" stroke-linejoin="round"/>
<path id="Vector_2" d="M2.83203 15.1584V1.84175C2.83203 1.72903 2.87681 1.62093 2.95651 1.54123C3.03621 1.46152 3.14431 1.41675 3.25703 1.41675H11.5105C11.6232 1.41685 11.7312 1.46169 11.8109 1.54141L14.0407 3.77125C14.0803 3.81084 14.1118 3.85789 14.1332 3.90967C14.1546 3.96146 14.1655 4.01697 14.1654 4.073V15.1584C14.1654 15.2142 14.1544 15.2695 14.133 15.3211C14.1117 15.3726 14.0804 15.4195 14.0409 15.4589C14.0014 15.4984 13.9546 15.5297 13.903 15.5511C13.8514 15.5724 13.7962 15.5834 13.7404 15.5834H3.25703C3.20122 15.5834 3.14595 15.5724 3.09439 15.5511C3.04283 15.5297 2.99598 15.4984 2.95651 15.4589C2.91705 15.4195 2.88574 15.3726 2.86438 15.3211C2.84302 15.2695 2.83203 15.2142 2.83203 15.1584Z" fill="none" stroke-width="1.2" stroke-linecap="round" stroke-linejoin="round"/>
<path id="Vector_3" d="M11.332 1.41675V3.82508C11.332 3.9378 11.3768 4.0459 11.4565 4.1256C11.5362 4.2053 11.6443 4.25008 11.757 4.25008H14.1654" fill="none" stroke-width="1.2" stroke-linecap="round" stroke-linejoin="round"/>
</g>
</g>
</svg>
