<svg xmlns="http://www.w3.org/2000/svg" width="16" height="21" viewBox="0 0 16 21" fill="none">
<path d="M15.7864 5.50363L10.8955 0.700056C10.7591 0.566127 10.575 0.490234 10.3818 0.490234H0.727273C0.325 0.490234 0 0.809431 0 1.20452V19.7759C0 20.171 0.325 20.4902 0.727273 20.4902H15.2727C15.675 20.4902 16 20.171 16 19.7759V6.01032C16 5.82059 15.9227 5.63756 15.7864 5.50363ZM14.3227 6.33845H10.0455V2.13756L14.3227 6.33845ZM14.3636 18.8831H1.63636V2.09738H8.5V6.91881C8.5 7.16745 8.60057 7.4059 8.77958 7.58172C8.95859 7.75753 9.20138 7.85631 9.45455 7.85631H14.3636V18.8831ZM8.36591 9.59738H7.63409C7.50909 9.59738 7.4 9.67997 7.37045 9.8005L6.24091 14.2402L5.19318 9.80497C5.16364 9.68443 5.05455 9.59738 4.92727 9.59738H4.12273C4.08092 9.59744 4.03969 9.60693 4.0022 9.62511C3.96472 9.64328 3.93198 9.66967 3.90652 9.70223C3.88105 9.73479 3.86353 9.77266 3.85531 9.81291C3.84708 9.85317 3.84838 9.89474 3.85909 9.93443L5.54545 16.0951C5.57727 16.2112 5.68636 16.2938 5.80909 16.2938H6.53636C6.65909 16.2938 6.76818 16.2134 6.8 16.0951L8 11.6978L9.2 16.0951C9.23182 16.2112 9.34091 16.2938 9.46364 16.2938H10.1864C10.3091 16.2938 10.4182 16.2134 10.45 16.0951L12.1409 9.93443C12.1515 9.89475 12.1528 9.85321 12.1445 9.81299C12.1362 9.77277 12.1187 9.73494 12.0933 9.7024C12.0678 9.66987 12.0351 9.64348 11.9977 9.62528C11.9602 9.60707 11.919 9.59753 11.8773 9.59738H11.0682C10.9409 9.59738 10.8318 9.68443 10.8023 9.80497L9.76136 14.2492L8.62955 9.8005C8.6 9.67997 8.49091 9.59738 8.36591 9.59738Z" fill="black"/>
</svg>