<svg xmlns="http://www.w3.org/2000/svg" width="14" height="13" viewBox="0 0 14 13" fill="none">
<path d="M4.33333 3.36523H2.33333C1.97971 3.36523 1.64057 3.49693 1.39052 3.73135C1.14048 3.96577 1 4.28371 1 4.61523V10.2402C1 10.5718 1.14048 10.8897 1.39052 11.1241C1.64057 11.3585 1.97971 11.4902 2.33333 11.4902H11.6667C12.0203 11.4902 12.3594 11.3585 12.6095 11.1241C12.8595 10.8897 13 10.5718 13 10.2402V4.61523C13 4.28371 12.8595 3.96577 12.6095 3.73135C12.3594 3.49693 12.0203 3.36523 11.6667 3.36523H9.66667M9 5.86523L7 7.74023M7 7.74023L5 5.86523M7 7.74023V1.49023" stroke="black" stroke-width="1.4" stroke-linecap="round" stroke-linejoin="round"/>
</svg>