<svg xmlns="http://www.w3.org/2000/svg" width="16" height="13" viewBox="0 0 16 13" fill="none">
<path d="M1.6 13C1.16 13 0.783467 12.841 0.4704 12.5231C0.1568 12.2046 0 11.8219 0 11.375V1.625C0 1.17813 0.1568 0.795708 0.4704 0.47775C0.783467 0.15925 1.16 0 1.6 0H6.4L8 1.625H14.4C14.84 1.625 15.2168 1.78425 15.5304 2.10275C15.8435 2.42071 16 2.80312 16 3.25V11.375C16 11.8219 15.8435 12.2046 15.5304 12.5231C15.2168 12.841 14.84 13 14.4 13H1.6ZM1.6 1.625V11.375H14.4V3.25H7.34L5.74 1.625H1.6ZM1.6 1.625V11.375V1.625Z" fill="black"/>
</svg>