<svg xmlns="http://www.w3.org/2000/svg" width="82" height="82" viewBox="0 0 82 82" fill="none">
<path d="M63.2057 18.792L18.7891 63.2087" stroke="#E11B1B" stroke-width="5" stroke-linecap="round"/>
<path d="M75.1654 37.0676V44.9327C75.1654 49.1216 75.1654 51.2194 74.3864 53.0986C73.6039 54.9846 72.1245 56.4674 69.1589 59.4297L59.4282 69.1637C56.4659 72.126 54.9865 73.6054 53.1005 74.3878C51.2179 75.1668 49.1201 75.1668 44.9347 75.1668H37.0661C32.8773 75.1668 30.7794 75.1668 28.9003 74.3878C27.0143 73.6054 25.5314 72.126 22.5692 69.1603L12.8351 59.4297C9.87286 56.4674 8.39345 54.988 7.61103 53.102C6.83203 51.216 6.83203 49.1216 6.83203 44.9362V37.0676C6.83203 32.8787 6.83203 30.7809 7.61103 28.9017C8.39345 27.0157 9.87286 25.5329 12.8385 22.5707L22.5692 12.8366C25.5314 9.87433 27.0109 8.39491 28.8969 7.6125C30.7829 6.8335 32.8773 6.8335 37.0627 6.8335H44.9313C49.1201 6.8335 51.218 6.8335 53.0971 7.6125C54.9831 8.39491 56.4659 9.87433 59.4282 12.84L69.1623 22.5707C72.1245 25.5329 73.6039 27.0123 74.3864 28.8983C75.1654 30.7843 75.1654 32.8787 75.1654 37.0642V37.0676Z" stroke="#E11B1B" stroke-width="5"/>
</svg>