<svg width="19" height="19" viewBox="0 0 19 19" fill="none" xmlns="http://www.w3.org/2000/svg">
<g clip-path="url(#clip0_1341_4454)">
<path d="M6.71388 10.0279C6.61354 9.94064 6.48397 9.8945 6.35108 9.89867C6.21819 9.90284 6.09176 9.95701 5.99708 10.0504C5.9024 10.1437 5.84644 10.2693 5.84039 10.4022C5.83434 10.535 5.87864 10.6652 5.96444 10.7668L8.79333 13.5957L14.0975 8.29148C14.184 8.19052 14.2291 8.06065 14.224 7.92782C14.2189 7.79499 14.1638 7.66899 14.0698 7.57499C13.9758 7.481 13.8498 7.42593 13.717 7.4208C13.5842 7.41567 13.4543 7.46085 13.3533 7.54732L8.79333 12.1073L6.71388 10.0279Z" stroke="none" />
<path d="M12.2071 4.7501H6.3329V3.86871C6.3329 3.84584 6.3374 3.82319 6.34616 3.80206C6.35491 3.78093 6.36774 3.76173 6.38391 3.74555C6.40008 3.72938 6.41928 3.71655 6.44042 3.7078C6.46155 3.69905 6.48419 3.69454 6.50707 3.69454H8.44401V3.16676C8.44401 2.88681 8.55522 2.61833 8.75318 2.42037C8.95113 2.22242 9.21962 2.11121 9.49957 2.11121C9.77952 2.11121 10.048 2.22242 10.246 2.42037C10.4439 2.61833 10.5551 2.88681 10.5551 3.16676V3.69454H11.9115C11.8875 3.51963 11.8751 3.34332 11.8746 3.16676C11.8751 2.99021 11.8875 2.81389 11.9115 2.63899H11.5421C11.4258 2.18488 11.1617 1.78238 10.7914 1.49495C10.4211 1.20753 9.96568 1.05151 9.49693 1.05151C9.02817 1.05151 8.57275 1.20753 8.20245 1.49495C7.83216 1.78238 7.56806 2.18488 7.45179 2.63899H6.50707C6.18135 2.64038 5.86937 2.77038 5.63906 3.0007C5.40874 3.23102 5.27873 3.54299 5.27734 3.86871V5.80565H12.8879C12.6062 5.49228 12.3764 5.13594 12.2071 4.7501Z" stroke="none" />
<path d="M15.8351 7.12502C15.6585 7.12445 15.4822 7.11211 15.3073 7.08807V16.8889H3.69618V3.69446H4.75174V2.63891H3.69618C3.56693 2.62021 3.43518 2.62914 3.30964 2.6651C3.18409 2.70106 3.0676 2.76324 2.96785 2.84753C2.86809 2.93182 2.78735 3.03631 2.73095 3.1541C2.67454 3.27188 2.64376 3.40029 2.64062 3.53085V17.0525C2.64132 17.1703 2.66521 17.2869 2.71094 17.3955C2.75667 17.5041 2.82334 17.6026 2.90714 17.6854C2.99095 17.7682 3.09025 17.8337 3.19937 17.8782C3.30849 17.9226 3.4253 17.9452 3.54313 17.9445H15.4603C15.5782 17.9452 15.695 17.9226 15.8041 17.8782C15.9132 17.8337 16.0125 17.7682 16.0963 17.6854C16.1801 17.6026 16.2468 17.5041 16.2925 17.3955C16.3383 17.2869 16.3622 17.1703 16.3628 17.0525V7.08807C16.1879 7.11211 16.0116 7.12445 15.8351 7.12502Z" stroke="none" />
<path d="M15.5437 5.18184C16.4976 5.18184 17.271 4.40851 17.271 3.45457C17.271 2.50062 16.4976 1.72729 15.5437 1.72729C14.5897 1.72729 13.8164 2.50062 13.8164 3.45457C13.8164 4.40851 14.5897 5.18184 15.5437 5.18184Z" stroke="none" />
</g>
<defs>
<clipPath id="clip0_1341_4454">
<rect width="19" height="19" stroke="none" />
</clipPath>
</defs>
</svg>
