<svg width="121" height="27" viewBox="0 0 121 27" fill="none" xmlns="http://www.w3.org/2000/svg">
<path d="M48.6661 7.78164H50.1394V6.35845H45.9572V7.78164H47.3354L44.674 14.3308L42.2977 7.78164H43.7235V6.35845H36.7372V7.78164H37.9254L38.5432 9.49088L36.4046 14.8058L33.553 7.7834H34.8362V6.36021H27.85V7.7834H29.1807L34.3134 20.548H35.359L39.161 11.2478L42.5354 20.548H43.4383L48.6661 7.7834V7.78164ZM63.7317 19.1707H61.7832V10.9141C61.7832 9.06357 61.5931 5.93114 56.1752 5.93114C54.0365 5.93114 52.2306 6.35845 51.1375 7.21307L51.185 10.3932H52.7533L53.3236 7.5927C53.9415 7.402 54.6544 7.402 55.1771 7.402C57.7435 7.402 57.8861 9.77516 57.8861 10.8664V12.4803C56.9831 12.5756 55.6524 12.7169 54.7019 12.9076C51.9929 13.4303 50.1394 14.7104 50.1394 17.1313C50.1394 19.3614 51.6127 21.023 53.989 21.023C55.9851 21.023 57.3633 20.3114 58.1713 19.741L58.6465 21.0689L63.8268 20.4049V19.1707H63.7317ZM57.8386 18.3637C57.4108 18.5527 56.8405 18.6957 56.1277 18.6957C54.7969 18.6957 53.894 17.7457 53.894 16.4656C53.894 15.0424 54.987 14.3308 56.5079 14.0447C56.8881 13.9494 57.3633 13.9017 57.791 13.8558V18.3637H57.8386ZM88.0648 16.3702H86.639V19.1689H80.6033L88.0648 7.82755V6.40436H76.8013V10.628H78.227V7.82931H83.835L76.3735 19.1707V20.5939H88.1123V16.3702H88.0648ZM18.535 21.0212C20.531 21.0212 21.9093 20.3096 22.7172 19.7393L23.1925 21.0671L28.3252 20.4032V19.1689H26.3767V10.9141C26.3767 9.06357 26.1866 5.93114 20.7687 5.93114C18.63 5.93114 16.824 6.35845 15.731 7.21307L15.7785 10.3932H17.3468L17.9171 7.5927C18.535 7.402 19.2478 7.402 19.7706 7.402C22.337 7.402 22.4796 9.77516 22.4796 10.8664V12.4803C21.5766 12.5756 20.2459 12.7169 19.2954 12.9076C16.5864 13.4303 14.7329 14.7104 14.7329 17.1313C14.6854 19.3614 16.2062 21.023 18.535 21.023V21.0212ZM21.1964 13.9988C21.5766 13.9035 22.0518 13.8558 22.4796 13.8081V18.3161C22.0518 18.505 21.4815 18.648 20.7687 18.648C19.4379 18.648 18.535 17.6981 18.535 16.4179C18.535 15.0424 19.628 14.3308 21.1964 13.9971V13.9988ZM115.63 6.35845V7.78164H117.483L114.299 16.6545L111.4 7.78164H113.063V6.35845H98.9957V7.78164H101.087L97.1897 12.3373H96.0016V0H89.9658V1.42319H92.152V19.1707H89.9658V20.5939H97.8551V19.1707H96.0016V13.8081H97.8551L101.372 19.1707H99.9462V20.5939H106.932V19.1707H105.649L100.279 10.9617L102.94 7.82931H107.55L111.97 20.5939H112.968L111.162 25.5768H108.833V27H114.156V25.5768H112.683L119.051 7.82931H121V6.40612H115.63V6.35845ZM74.52 19.6457L73.8072 18.1748C73.8072 18.1748 72.9517 18.6975 71.9537 18.6975C70.718 18.6975 69.9101 17.9382 69.9101 16.6104V7.78164H73.9973V6.35845H69.9576V3.36904H66.108V6.35845H63.9694V7.78164H66.108V16.6545C66.108 19.5962 67.5813 21.0194 70.5279 21.0194C71.1457 21.0194 71.8111 20.8764 72.3339 20.6875C73.5695 20.3078 74.52 19.6439 74.52 19.6439V19.6457ZM9.55263 11.0094C9.36253 10.8664 5.70306 8.54267 5.70306 8.54267C4.56245 7.83108 3.42184 6.88111 3.42184 5.45792C3.42184 4.03473 4.37235 3.13243 6.08327 3.13243C7.41398 3.13243 8.5546 3.36904 9.45758 3.65509L10.1229 7.07181H11.8339V2.70512C11.8339 2.70512 9.315 1.47087 6.13079 1.47087C2.51885 1.47087 0.0950511 3.55974 0.0950511 6.07416C0.0950511 8.02001 0.807934 9.58623 2.6139 10.8664C3.27926 11.3414 6.93873 13.6669 7.36646 13.9511C8.41202 14.6627 8.9348 15.279 8.9348 16.6086C8.9348 18.5544 7.50903 19.266 5.22781 19.266C4.22977 19.266 3.23174 19.0753 2.51885 18.8387L1.71092 15.3267H0V19.6916C0 19.6916 1.80597 20.9735 5.22781 20.9735C9.02985 20.9735 12.3091 19.3137 12.3091 15.5633C12.3566 13.1901 10.8833 11.9576 9.55263 11.0077V11.0094Z" fill="#1B2531"/>
</svg>
