<svg width="197" height="44" viewBox="0 0 197 44" fill="none" xmlns="http://www.w3.org/2000/svg">
<path d="M131.311 31.1633H141.137V26.6773H143.459V12.7588L131.311 31.1633ZM127.287 12.6811V17.2448H124.966V10.3618H120.4V12.6811H113.746V27.1406C113.746 29.3045 115.061 30.5418 117.073 30.5418C118.621 30.5418 120.091 29.69 120.091 29.69L121.252 32.087C121.252 32.087 120.091 32.9388 118.389 33.5574H124.269V31.2381L136.417 12.7559H127.287V12.6782V12.6811Z" fill="#3CACDD"/>
<path d="M79.2333 12.6812H81.632V10.3619H74.8229V12.6812H77.0668L72.7337 23.3539L68.8649 12.6812H71.1862V10.3619H59.8119V12.6812H61.7463L62.7522 15.4666L59.2702 24.1279L54.6277 12.6841H56.7168V10.3648H45.3425V12.6841H47.509L55.8657 33.4856H57.568L63.7581 18.3297L69.2518 33.4856H70.7219L79.2333 12.6841V12.6812ZM103.762 31.2411H100.589V17.7859C100.589 14.7703 100.28 9.66556 91.4588 9.66556C87.9768 9.66556 85.0365 10.3619 83.2569 11.7546L83.3343 16.937H85.8877L86.8162 12.3733C87.8221 12.0625 88.9827 12.0625 89.8339 12.0625C94.0122 12.0625 94.2443 15.9299 94.2443 17.7082V20.3382C92.7742 20.4936 90.6076 20.7238 89.0601 21.0346C84.6496 21.8863 81.632 23.9725 81.632 27.9176C81.632 31.5519 84.0306 34.2596 87.8995 34.2596C91.1493 34.2596 93.3932 33.1 94.7086 32.1706L95.4823 34.3344L103.916 33.2525V31.2411H103.762ZM94.1669 29.9261C93.4705 30.234 92.542 30.4671 91.3814 30.4671C89.2148 30.4671 87.7447 28.919 87.7447 26.8328C87.7447 24.5135 89.5244 23.3539 92.0004 22.8877C92.6194 22.7323 93.3932 22.6546 94.0896 22.5798V29.9261H94.1669ZM143.378 26.6774H141.057V31.2382H131.23L143.378 12.756V10.4367H125.04V17.3197H127.361V12.7589H136.492L124.344 31.2411V33.5604H143.456V26.6774H143.378ZM30.1767 34.2568C33.4266 34.2568 35.6705 33.0971 36.9859 32.1677L37.7596 34.3316L46.1163 33.2496V31.2382H42.9438V17.7859C42.9438 14.7703 42.6343 9.66556 33.8134 9.66556C30.3315 9.66556 27.3912 10.3619 25.6115 11.7546L25.6889 16.937H28.2423L29.1709 12.3733C30.1767 12.0625 31.3374 12.0625 32.1885 12.0625C36.3669 12.0625 36.599 15.9299 36.599 17.7082V20.3382C35.1288 20.4936 32.9623 20.7238 31.4148 21.0346C27.0043 21.8863 23.9866 23.9725 23.9866 27.9176C23.9093 31.5519 26.3853 34.2596 30.1767 34.2596V34.2568ZM34.5098 22.8129C35.1288 22.6575 35.9026 22.5798 36.599 22.5021V29.8484C35.9026 30.1563 34.9741 30.3894 33.8134 30.3894C31.6469 30.3894 30.1767 28.8413 30.1767 26.7551C30.1767 24.5135 31.9564 23.3539 34.5098 22.81V22.8129ZM188.256 10.3619V12.6812H191.274L186.09 27.1407L181.37 12.6812H184.078V10.3619H161.175V12.6812H164.579L158.234 20.1052H156.3V0H146.473V2.31927H150.033V31.2411H146.473V33.5604H159.318V31.2411H156.3V22.5021H159.318L165.044 31.2411H162.722V33.5604H174.097V31.2411H172.007L163.264 17.8636L167.597 12.7589H175.103L182.299 33.5604H183.923L180.983 41.6807H177.192V44H185.858V41.6807H183.459L193.828 12.7589H197V10.4396H188.256V10.3619ZM121.326 32.0152L120.165 29.6182C120.165 29.6182 118.773 30.4699 117.148 30.4699C115.136 30.4699 113.821 29.2326 113.821 27.0687V12.6812H120.475V10.3619H113.898V5.49029H107.63V10.3619H104.148V12.6812H107.63V27.1407C107.63 31.9346 110.029 34.2539 114.826 34.2539C115.832 34.2539 116.916 34.0208 117.767 33.7129C119.778 33.0942 121.326 32.0123 121.326 32.0123V32.0152ZM15.5526 17.9413C15.2431 17.7082 9.28515 13.9214 9.28515 13.9214C7.42812 12.7618 5.57109 11.2137 5.57109 8.89438C5.57109 6.57511 7.11862 5.1047 9.90416 5.1047C12.0707 5.1047 13.9277 5.49029 15.3979 5.95645L16.4811 11.5244H19.2667V4.40834C19.2667 4.40834 15.1658 2.39697 9.98154 2.39697C4.10094 2.39697 0.154753 5.80106 0.154753 9.89863C0.154753 13.0696 1.3154 15.622 4.2557 17.7082C5.33896 18.4822 11.2969 22.2719 11.9933 22.7352C13.6956 23.8948 14.5467 24.8991 14.5467 27.0659C14.5467 30.2369 12.2255 31.3965 8.51139 31.3965C6.88649 31.3965 5.26159 31.0857 4.10094 30.7002L2.78555 24.9768H0V32.09C0 32.09 2.9403 34.1791 8.51139 34.1791C14.7015 34.1791 20.0405 31.4742 20.0405 25.3624C20.1178 21.495 17.7192 19.4865 15.5526 17.9384V17.9413Z" fill="#1B2531"/>
</svg>
