<svg width="19" height="13" viewBox="0 0 19 13" fill="none" xmlns="http://www.w3.org/2000/svg">
<path d="M8.47917 12.0625H10.5208C11.0823 12.0625 11.5417 11.6195 11.5417 11.0781C11.5417 10.5367 11.0823 10.0938 10.5208 10.0938H8.47917C7.91771 10.0938 7.45833 10.5367 7.45833 11.0781C7.45833 11.6195 7.91771 12.0625 8.47917 12.0625ZM0.3125 1.23438C0.3125 1.77578 0.771875 2.21875 1.33333 2.21875H17.6667C18.2281 2.21875 18.6875 1.77578 18.6875 1.23438C18.6875 0.692969 18.2281 0.25 17.6667 0.25H1.33333C0.771875 0.25 0.3125 0.692969 0.3125 1.23438ZM4.39583 7.14062H14.6042C15.1656 7.14062 15.625 6.69766 15.625 6.15625C15.625 5.61484 15.1656 5.17188 14.6042 5.17188H4.39583C3.83438 5.17188 3.375 5.61484 3.375 6.15625C3.375 6.69766 3.83438 7.14062 4.39583 7.14062Z" stroke='none'/>
</svg>
