<svg width="12" height="11" viewBox="0 0 12 11" fill="none" xmlns="http://www.w3.org/2000/svg">
<path d="M11.5533 2.26471L9.49826 0.374141C9.23005 0.14237 8.87859 0.00938355 8.51075 0.000477996C8.1429 -0.00842756 7.78432 0.107369 7.50324 0.325841L0.753161 6.53575C0.510732 6.76066 0.359785 7.05546 0.325656 7.37064L0.00315225 10.2479C-0.00695114 10.349 0.00730304 10.4508 0.0448986 10.5462C0.0824942 10.6417 0.142505 10.7283 0.220655 10.7999C0.290735 10.8638 0.373848 10.9144 0.465228 10.9488C0.556607 10.9831 0.654455 11.0005 0.753161 11H0.820661L3.9482 10.7378C4.2908 10.7064 4.61123 10.5675 4.85571 10.3445L11.6058 4.13459C11.8678 3.87996 12.0094 3.54017 11.9995 3.18967C11.9897 2.83917 11.8292 2.50656 11.5533 2.26471ZM9.00325 4.56928L6.99323 2.72011L8.45575 1.34013L10.5033 3.2238L9.00325 4.56928Z" fill="white"/>
</svg>
