<svg xmlns="http://www.w3.org/2000/svg" width="19" height="19" viewBox="0 0 19 19" fill="none">
  <path fill-rule="evenodd" clip-rule="evenodd" d="M3.95832 7.91667C3.95832 6.86685 4.37536 5.86003 5.11769 5.1177C5.86002 4.37537 6.86684 3.95833 7.91666 3.95833C8.96647 3.95833 9.97329 4.37537 10.7156 5.1177C11.458 5.86003 11.875 6.86685 11.875 7.91667C11.875 8.96648 11.458 9.9733 10.7156 10.7156C9.97329 11.458 8.96647 11.875 7.91666 11.875C6.86684 11.875 5.86002 11.458 5.11769 10.7156C4.37536 9.9733 3.95832 8.96648 3.95832 7.91667ZM7.91666 2.375C7.03891 2.375 6.17371 2.58351 5.39231 2.98334C4.61091 3.38318 3.93567 3.96291 3.42219 4.6748C2.9087 5.38668 2.57167 6.21036 2.43883 7.078C2.30599 7.94565 2.38116 8.83243 2.65813 9.66534C2.93511 10.4982 3.40597 11.2534 4.03195 11.8688C4.65792 12.4841 5.42111 12.9419 6.25865 13.2045C7.0962 13.4671 7.98415 13.527 8.84938 13.3793C9.71461 13.2315 10.5324 12.8804 11.2353 12.3548L15.2728 16.393C15.4213 16.5416 15.6226 16.6251 15.8326 16.6252C16.0427 16.6252 16.2441 16.5419 16.3926 16.3934C16.5412 16.245 16.6247 16.0436 16.6248 15.8336C16.6248 15.6236 16.5415 15.4222 16.393 15.2736L12.3555 11.2361C12.9717 10.4124 13.3465 9.43344 13.4378 8.40882C13.5292 7.3842 13.3335 6.35438 12.8728 5.43464C12.4121 4.5149 11.7044 3.74156 10.8291 3.20119C9.95379 2.66081 8.94534 2.37474 7.91666 2.375Z" fill="black"/>
</svg>